<svg width="72" height="66" viewBox="0 0 72 66" fill="none" xmlns="http://www.w3.org/2000/svg">
<path d="M11.8714 31.3697L7.98828 0.253906H13.9964L16.3042 21.4195L18.3554 0.253906H24.3635L20.4804 31.3697H11.8714Z" fill="#F3F3F3"/>
<path d="M25.8633 31.3689V0.289062H31.9441V31.3689H25.8633Z" fill="#F3F3F3"/>
<path d="M34.4737 31.3689V0.289062H40.7749V26.086H47.2589V31.3679H34.4727L34.4737 31.3689Z" fill="#F3F3F3"/>
<path d="M50.3003 29.5611C49.0298 28.1627 48.3945 25.9068 48.3945 22.7953V19.7556H54.5855V23.6276C54.5855 25.1717 55.086 25.9427 56.0881 25.9427C56.6495 25.9427 57.0409 25.78 57.2602 25.4547C57.4805 25.1284 57.5906 24.5813 57.5906 23.8082C57.5906 22.7953 57.4677 21.9578 57.2238 21.2934C56.9789 20.6301 56.6677 20.0757 56.2891 19.6289C55.9106 19.1832 55.2325 18.4893 54.2561 17.5482L51.5451 14.8709C49.4447 12.8451 48.3945 10.6018 48.3945 8.14095C48.3945 5.48785 49.0116 3.46846 50.2447 2.08065C51.4777 0.693903 53.2797 0 55.6485 0C58.4815 0 60.5209 0.741431 61.7668 2.22535C63.0127 3.70821 63.6351 6.03073 63.6351 9.19078H57.2238L57.1875 7.05627C57.1875 6.64647 57.0709 6.32117 56.8388 6.07931C56.6068 5.8385 56.2827 5.71704 55.8678 5.71704C55.379 5.71704 55.0122 5.85012 54.7684 6.11522C54.5235 6.38137 54.4026 6.74258 54.4026 7.20096C54.4026 8.21383 54.9887 9.26366 56.1608 10.3483L59.8247 13.8221C60.6792 14.6427 61.3871 15.4201 61.9497 16.1552C62.5111 16.8913 62.9624 17.7595 63.3047 18.7607C63.6469 19.762 63.818 20.9502 63.818 22.3242C63.818 25.3871 63.2501 27.7096 62.1144 29.2897C60.9786 30.8697 59.1039 31.6597 56.4913 31.6597C53.6337 31.6597 51.5697 30.9605 50.3003 29.5611Z" fill="#F3F3F3"/>
<path d="M0 64.9566V59.9905C0 59.9028 0.0716524 59.832 0.160416 59.832H6.25087C6.33964 59.832 6.41129 59.9028 6.41129 59.9905V64.9566C6.41129 65.0442 6.33964 65.115 6.25087 65.115H0.160416C0.0716524 65.115 0 65.0442 0 64.9566Z" fill="url(#paint0_linear_48_3088)"/>
<path d="M26.2656 65.115V34.0352H32.3465V65.115H26.2656Z" fill="#F3F3F3"/>
<path d="M20.4804 34L24.3635 65.1158H18.3554L16.0476 43.9502L13.9964 65.1158H7.98828L11.8714 34H20.4804Z" fill="#F3F3F3"/>
<path d="M36.5625 49.4249H43.1011C43.1011 44.4915 47.15 40.4929 52.1453 40.4929V34.0312C43.5406 34.0312 36.5625 40.9228 36.5625 49.4239V49.4249Z" fill="url(#paint1_linear_48_3088)"/>
<path d="M67.7312 49.4219H61.1927C61.1927 54.3552 57.1438 58.3539 52.1484 58.3539V64.8155C60.7531 64.8155 67.7312 57.924 67.7312 49.4229V49.4219Z" fill="url(#paint2_linear_48_3088)"/>
<mask id="mask0_48_3088" style="mask-type:luminance" maskUnits="userSpaceOnUse" x="52" y="49" width="16" height="16">
<path d="M67.7351 49.4219H61.1966C61.1966 54.3552 57.1477 58.3539 52.1523 58.3539V64.8155C60.7571 64.8155 67.7351 57.924 67.7351 49.4229V49.4219Z" fill="white"/>
</mask>
<g mask="url(#mask0_48_3088)">
<path d="M64.3828 52.2266H71.4604" stroke="white" stroke-width="0.260141" stroke-miterlimit="10" stroke-linecap="round"/>
<path d="M52.1523 53.5938H71.8578" stroke="white" stroke-width="0.260141" stroke-miterlimit="10" stroke-linecap="round"/>
<path d="M52.1523 54.9531H71.8578" stroke="white" stroke-width="0.260141" stroke-miterlimit="10" stroke-linecap="round"/>
<path d="M52.1523 56.3203H71.8578" stroke="white" stroke-width="0.260141" stroke-miterlimit="10" stroke-linecap="round"/>
<path d="M52.1523 57.6836H71.8578" stroke="white" stroke-width="0.260141" stroke-miterlimit="10" stroke-linecap="round"/>
<path d="M52.1523 59.0469H71.8578" stroke="white" stroke-width="0.260141" stroke-miterlimit="10" stroke-linecap="round"/>
<path d="M52.1523 60.4104H71.8578" stroke="white" stroke-width="0.260141" stroke-miterlimit="10" stroke-linecap="round"/>
<path d="M52.1523 61.7734H71.8578" stroke="white" stroke-width="0.260141" stroke-miterlimit="10" stroke-linecap="round"/>
<path d="M52.1523 63.1406H71.8578" stroke="white" stroke-width="0.260141" stroke-miterlimit="10" stroke-linecap="round"/>
<path d="M52.1523 64.5H71.8578" stroke="white" stroke-width="0.260141" stroke-miterlimit="10" stroke-linecap="round"/>
</g>
<path d="M64.4429 52.5116C64.5295 52.0427 64.6728 51.7068 64.7872 51.4977C64.8321 51.4164 64.7402 51.3255 64.66 51.372C63.7017 51.9233 63.2825 52.7271 63.2301 53.3724C63.1852 53.929 63.5691 54.5014 64.152 54.606C64.7338 54.7106 65.292 54.3282 65.3979 53.7537C65.508 53.1506 65.0781 52.5718 64.4439 52.5116H64.4429Z" fill="white"/>
<path d="M62.0522 52.5116C62.1389 52.0427 62.2822 51.7068 62.3966 51.4977C62.4415 51.4164 62.3495 51.3255 62.2693 51.372C61.3111 51.9233 60.8919 52.7271 60.8395 53.3724C60.7946 53.929 61.1785 54.5014 61.7614 54.606C62.3431 54.7106 62.9014 54.3282 63.0072 53.7537C63.1174 53.1506 62.6875 52.5718 62.0533 52.5116H62.0522Z" fill="white"/>
<mask id="mask1_48_3088" style="mask-type:luminance" maskUnits="userSpaceOnUse" x="36" y="34" width="17" height="16">
<path d="M36.5664 49.4249H43.105C43.105 44.4915 47.1539 40.4929 52.1492 40.4929V34.0312C43.5445 34.0312 36.5664 40.9228 36.5664 49.4239V49.4249Z" fill="white"/>
</mask>
<g mask="url(#mask1_48_3088)">
<path d="M50.2705 36.1096H49.862V36.4244H50.2705C50.6031 36.4244 50.8737 36.1571 50.8737 35.8287V35.3883H50.555V35.8287C50.555 35.9839 50.4277 36.1096 50.2705 36.1096ZM49.862 33.9297V34.2444H50.2705C50.4277 34.2444 50.555 34.3712 50.555 34.5264V34.8929H50.8737V34.5264C50.8737 34.1969 50.6031 33.9297 50.2705 33.9297H49.862ZM48.6664 35.3883H48.3477V35.8287C48.3477 36.1571 48.6182 36.4244 48.9519 36.4244H49.3604V36.1096H48.9519C48.7947 36.1096 48.6664 35.9839 48.6664 35.8287V35.3883ZM48.3477 34.5264V34.8929H48.6664V34.5264C48.6664 34.3712 48.7947 34.2444 48.9519 34.2444H49.3604V33.9297H48.9519C48.6182 33.9297 48.3477 34.1969 48.3477 34.5264Z" fill="white"/>
<path d="M53.6533 36.1096H53.2448V36.4244H53.6533C53.9859 36.4244 54.2565 36.1571 54.2565 35.8287V35.3883H53.9378V35.8287C53.9378 35.9839 53.8105 36.1096 53.6533 36.1096ZM53.2448 33.9297V34.2444H53.6533C53.8105 34.2444 53.9378 34.3712 53.9378 34.5264V34.8929H54.2565V34.5264C54.2565 34.1969 53.9859 33.9297 53.6533 33.9297H53.2448ZM52.0492 35.3883H51.7305V35.8287C51.7305 36.1571 52.001 36.4244 52.3347 36.4244H52.7432V36.1096H52.3347C52.1775 36.1096 52.0492 35.9839 52.0492 35.8287V35.3883ZM51.7305 34.5264V34.8929H52.0492V34.5264C52.0492 34.3712 52.1775 34.2444 52.3347 34.2444H52.7432V33.9297H52.3347C52.001 33.9297 51.7305 34.1969 51.7305 34.5264Z" fill="white"/>
<path d="M46.9111 36.1096H46.5026V36.4244H46.9111C47.2437 36.4244 47.5143 36.1571 47.5143 35.8287V35.3883H47.1956V35.8287C47.1956 35.9839 47.0683 36.1096 46.9111 36.1096ZM46.5026 33.9297V34.2444H46.9111C47.0683 34.2444 47.1956 34.3712 47.1956 34.5264V34.8929H47.5143V34.5264C47.5143 34.1969 47.2437 33.9297 46.9111 33.9297H46.5026ZM45.307 35.3883H44.9883V35.8287C44.9883 36.1571 45.2588 36.4244 45.5925 36.4244H46.001V36.1096H45.5925C45.4353 36.1096 45.307 35.9839 45.307 35.8287V35.3883ZM44.9883 34.5264V34.8929H45.307V34.5264C45.307 34.3712 45.4353 34.2444 45.5925 34.2444H46.001V33.9297H45.5925C45.2588 33.9297 44.9883 34.1969 44.9883 34.5264Z" fill="white"/>
<path d="M43.5518 36.1057H43.1432V36.4205H43.5518C43.8844 36.4205 44.1549 36.1532 44.1549 35.8248V35.3844H43.8362V35.8248C43.8362 35.98 43.709 36.1057 43.5518 36.1057ZM43.1432 33.9258V34.2405H43.5518C43.709 34.2405 43.8362 34.3673 43.8362 34.5225V34.889H44.1549V34.5225C44.1549 34.193 43.8844 33.9258 43.5518 33.9258H43.1432ZM41.9476 35.3844H41.6289V35.8248C41.6289 36.1532 41.8995 36.4205 42.2331 36.4205H42.6417V36.1057H42.2331C42.0759 36.1057 41.9476 35.98 41.9476 35.8248V35.3844ZM41.6289 34.5225V34.889H41.9476V34.5225C41.9476 34.3673 42.0759 34.2405 42.2331 34.2405H42.6417V33.9258H42.2331C41.8995 33.9258 41.6289 34.193 41.6289 34.5225Z" fill="white"/>
<path d="M50.2705 42.3674H49.862V42.6822H50.2705C50.6031 42.6822 50.8737 42.415 50.8737 42.0865V41.6461H50.555V42.0865C50.555 42.2417 50.4277 42.3674 50.2705 42.3674ZM49.862 40.1875V40.5022H50.2705C50.4277 40.5022 50.555 40.629 50.555 40.7842V41.1507H50.8737V40.7842C50.8737 40.4547 50.6031 40.1875 50.2705 40.1875H49.862ZM48.6664 41.6461H48.3477V42.0865C48.3477 42.415 48.6182 42.6822 48.9519 42.6822H49.3604V42.3674H48.9519C48.7947 42.3674 48.6664 42.2417 48.6664 42.0865V41.6461ZM48.3477 40.7842V41.1507H48.6664V40.7842C48.6664 40.629 48.7947 40.5022 48.9519 40.5022H49.3604V40.1875H48.9519C48.6182 40.1875 48.3477 40.4547 48.3477 40.7842Z" fill="white"/>
<path d="M48.5869 39.2385H48.1784V39.5533H48.5869C48.9195 39.5533 49.1901 39.2861 49.1901 38.9576V38.5172H48.8714V38.9576C48.8714 39.1128 48.7441 39.2385 48.5869 39.2385ZM48.1784 37.0586V37.3733H48.5869C48.7441 37.3733 48.8714 37.5001 48.8714 37.6553V38.0218H49.1901V37.6553C49.1901 37.3258 48.9195 37.0586 48.5869 37.0586H48.1784ZM46.9828 38.5172H46.6641V38.9576C46.6641 39.2861 46.9346 39.5533 47.2683 39.5533H47.6768V39.2385H47.2683C47.1111 39.2385 46.9828 39.1128 46.9828 38.9576V38.5172ZM46.6641 37.6553V38.0218H46.9828V37.6553C46.9828 37.5001 47.1111 37.3733 47.2683 37.3733H47.6768V37.0586H47.2683C46.9346 37.0586 46.6641 37.3258 46.6641 37.6553Z" fill="white"/>
<path d="M45.2549 39.2385H44.8464V39.5533H45.2549C45.5875 39.5533 45.858 39.2861 45.858 38.9576V38.5172H45.5394V38.9576C45.5394 39.1128 45.4121 39.2385 45.2549 39.2385ZM44.8464 37.0586V37.3733H45.2549C45.4121 37.3733 45.5394 37.5001 45.5394 37.6553V38.0218H45.858V37.6553C45.858 37.3258 45.5875 37.0586 45.2549 37.0586H44.8464ZM43.6507 38.5172H43.332V38.9576C43.332 39.2861 43.6026 39.5533 43.9363 39.5533H44.3448V39.2385H43.9363C43.7791 39.2385 43.6507 39.1128 43.6507 38.9576V38.5172ZM43.332 37.6553V38.0218H43.6507V37.6553C43.6507 37.5001 43.7791 37.3733 43.9363 37.3733H44.3448V37.0586H43.9363C43.6026 37.0586 43.332 37.3258 43.332 37.6553Z" fill="white"/>
<path d="M41.9502 39.2385H41.5417V39.5533H41.9502C42.2828 39.5533 42.5534 39.2861 42.5534 38.9576V38.5172H42.2347V38.9576C42.2347 39.1128 42.1074 39.2385 41.9502 39.2385ZM41.5417 37.0586V37.3733H41.9502C42.1074 37.3733 42.2347 37.5001 42.2347 37.6553V38.0218H42.5534V37.6553C42.5534 37.3258 42.2828 37.0586 41.9502 37.0586H41.5417ZM40.346 38.5172H40.0273V38.9576C40.0273 39.2861 40.2979 39.5533 40.6316 39.5533H41.0401V39.2385H40.6316C40.4744 39.2385 40.346 39.1128 40.346 38.9576V38.5172ZM40.0273 37.6553V38.0218H40.346V37.6553C40.346 37.5001 40.4744 37.3733 40.6316 37.3733H41.0401V37.0586H40.6316C40.2979 37.0586 40.0273 37.3258 40.0273 37.6553Z" fill="white"/>
<path d="M51.9268 39.2385H51.5182V39.5533H51.9268C52.2594 39.5533 52.5299 39.2861 52.5299 38.9576V38.5172H52.2112V38.9576C52.2112 39.1128 52.084 39.2385 51.9268 39.2385ZM51.5182 37.0586V37.3733H51.9268C52.084 37.3733 52.2112 37.5001 52.2112 37.6553V38.0218H52.5299V37.6553C52.5299 37.3258 52.2594 37.0586 51.9268 37.0586H51.5182ZM50.3226 38.5172H50.0039V38.9576C50.0039 39.2861 50.2745 39.5533 50.6081 39.5533H51.0167V39.2385H50.6081C50.4509 39.2385 50.3226 39.1128 50.3226 38.9576V38.5172ZM50.0039 37.6553V38.0218H50.3226V37.6553C50.3226 37.5001 50.4509 37.3733 50.6081 37.3733H51.0167V37.0586H50.6081C50.2745 37.0586 50.0039 37.3258 50.0039 37.6553Z" fill="white"/>
<path d="M46.9111 42.3674H46.5026V42.6822H46.9111C47.2437 42.6822 47.5143 42.415 47.5143 42.0865V41.6461H47.1956V42.0865C47.1956 42.2417 47.0683 42.3674 46.9111 42.3674ZM46.5026 40.1875V40.5022H46.9111C47.0683 40.5022 47.1956 40.629 47.1956 40.7842V41.1507H47.5143V40.7842C47.5143 40.4547 47.2437 40.1875 46.9111 40.1875H46.5026ZM45.307 41.6461H44.9883V42.0865C44.9883 42.415 45.2588 42.6822 45.5925 42.6822H46.001V42.3674H45.5925C45.4353 42.3674 45.307 42.2417 45.307 42.0865V41.6461ZM44.9883 40.7842V41.1507H45.307V40.7842C45.307 40.629 45.4353 40.5022 45.5925 40.5022H46.001V40.1875H45.5925C45.2588 40.1875 44.9883 40.4547 44.9883 40.7842Z" fill="white"/>
<path d="M43.5518 42.3674H43.1432V42.6822H43.5518C43.8844 42.6822 44.1549 42.415 44.1549 42.0865V41.6461H43.8362V42.0865C43.8362 42.2417 43.709 42.3674 43.5518 42.3674ZM43.1432 40.1875V40.5022H43.5518C43.709 40.5022 43.8362 40.629 43.8362 40.7842V41.1507H44.1549V40.7842C44.1549 40.4547 43.8844 40.1875 43.5518 40.1875H43.1432ZM41.9476 41.6461H41.6289V42.0865C41.6289 42.415 41.8995 42.6822 42.2331 42.6822H42.6417V42.3674H42.2331C42.0759 42.3674 41.9476 42.2417 41.9476 42.0865V41.6461ZM41.6289 40.7842V41.1507H41.9476V40.7842C41.9476 40.629 42.0759 40.5022 42.2331 40.5022H42.6417V40.1875H42.2331C41.8995 40.1875 41.6289 40.4547 41.6289 40.7842Z" fill="white"/>
<path d="M40.2275 42.3674H39.819V42.6822H40.2275C40.5601 42.6822 40.8307 42.415 40.8307 42.0865V41.6461H40.512V42.0865C40.512 42.2417 40.3847 42.3674 40.2275 42.3674ZM39.819 40.1875V40.5022H40.2275C40.3847 40.5022 40.512 40.629 40.512 40.7842V41.1507H40.8307V40.7842C40.8307 40.4547 40.5601 40.1875 40.2275 40.1875H39.819ZM38.6234 41.6461H38.3047V42.0865C38.3047 42.415 38.5753 42.6822 38.9089 42.6822H39.3174V42.3674H38.9089C38.7517 42.3674 38.6234 42.2417 38.6234 42.0865V41.6461ZM38.3047 40.7842V41.1507H38.6234V40.7842C38.6234 40.629 38.7517 40.5022 38.9089 40.5022H39.3174V40.1875H38.9089C38.5753 40.1875 38.3047 40.4547 38.3047 40.7842Z" fill="white"/>
<path d="M50.2705 48.6292H49.862V48.9439H50.2705C50.6031 48.9439 50.8737 48.6767 50.8737 48.3482V47.9078H50.555V48.3482C50.555 48.5035 50.4277 48.6292 50.2705 48.6292ZM49.862 46.4492V46.764H50.2705C50.4277 46.764 50.555 46.8907 50.555 47.046V47.4124H50.8737V47.046C50.8737 46.7164 50.6031 46.4492 50.2705 46.4492H49.862ZM48.6664 47.9078H48.3477V48.3482C48.3477 48.6767 48.6182 48.9439 48.9519 48.9439H49.3604V48.6292H48.9519C48.7947 48.6292 48.6664 48.5035 48.6664 48.3482V47.9078ZM48.3477 47.046V47.4124H48.6664V47.046C48.6664 46.8907 48.7947 46.764 48.9519 46.764H49.3604V46.4492H48.9519C48.6182 46.4492 48.3477 46.7164 48.3477 47.046Z" fill="white"/>
<path d="M48.5869 45.5002H48.1784V45.815H48.5869C48.9195 45.815 49.1901 45.5478 49.1901 45.2193V44.7789H48.8714V45.2193C48.8714 45.3746 48.7441 45.5002 48.5869 45.5002ZM48.1784 43.3203V43.635H48.5869C48.7441 43.635 48.8714 43.7618 48.8714 43.917V44.2835H49.1901V43.917C49.1901 43.5875 48.9195 43.3203 48.5869 43.3203H48.1784ZM46.9828 44.7789H46.6641V45.2193C46.6641 45.5478 46.9346 45.815 47.2683 45.815H47.6768V45.5002H47.2683C47.1111 45.5002 46.9828 45.3746 46.9828 45.2193V44.7789ZM46.6641 43.917V44.2835H46.9828V43.917C46.9828 43.7618 47.1111 43.635 47.2683 43.635H47.6768V43.3203H47.2683C46.9346 43.3203 46.6641 43.5875 46.6641 43.917Z" fill="white"/>
<path d="M45.2549 45.5002H44.8464V45.815H45.2549C45.5875 45.815 45.858 45.5478 45.858 45.2193V44.7789H45.5394V45.2193C45.5394 45.3746 45.4121 45.5002 45.2549 45.5002ZM44.8464 43.3203V43.635H45.2549C45.4121 43.635 45.5394 43.7618 45.5394 43.917V44.2835H45.858V43.917C45.858 43.5875 45.5875 43.3203 45.2549 43.3203H44.8464ZM43.6507 44.7789H43.332V45.2193C43.332 45.5478 43.6026 45.815 43.9363 45.815H44.3448V45.5002H43.9363C43.7791 45.5002 43.6507 45.3746 43.6507 45.2193V44.7789ZM43.332 43.917V44.2835H43.6507V43.917C43.6507 43.7618 43.7791 43.635 43.9363 43.635H44.3448V43.3203H43.9363C43.6026 43.3203 43.332 43.5875 43.332 43.917Z" fill="white"/>
<path d="M41.9502 45.5002H41.5417V45.815H41.9502C42.2828 45.815 42.5534 45.5478 42.5534 45.2193V44.7789H42.2347V45.2193C42.2347 45.3746 42.1074 45.5002 41.9502 45.5002ZM41.5417 43.3203V43.635H41.9502C42.1074 43.635 42.2347 43.7618 42.2347 43.917V44.2835H42.5534V43.917C42.5534 43.5875 42.2828 43.3203 41.9502 43.3203H41.5417ZM40.346 44.7789H40.0273V45.2193C40.0273 45.5478 40.2979 45.815 40.6316 45.815H41.0401V45.5002H40.6316C40.4744 45.5002 40.346 45.3746 40.346 45.2193V44.7789ZM40.0273 43.917V44.2835H40.346V43.917C40.346 43.7618 40.4744 43.635 40.6316 43.635H41.0401V43.3203H40.6316C40.2979 43.3203 40.0273 43.5875 40.0273 43.917Z" fill="white"/>
<path d="M38.7119 45.5002H38.3034V45.815H38.7119C39.0445 45.815 39.3151 45.5478 39.3151 45.2193V44.7789H38.9964V45.2193C38.9964 45.3746 38.8691 45.5002 38.7119 45.5002ZM38.3034 43.3203V43.635H38.7119C38.8691 43.635 38.9964 43.7618 38.9964 43.917V44.2835H39.3151V43.917C39.3151 43.5875 39.0445 43.3203 38.7119 43.3203H38.3034ZM37.1078 44.7789H36.7891V45.2193C36.7891 45.5478 37.0596 45.815 37.3933 45.815H37.8018V45.5002H37.3933C37.2361 45.5002 37.1078 45.3746 37.1078 45.2193V44.7789ZM36.7891 43.917V44.2835H37.1078V43.917C37.1078 43.7618 37.2361 43.635 37.3933 43.635H37.8018V43.3203H37.3933C37.0596 43.3203 36.7891 43.5875 36.7891 43.917Z" fill="white"/>
<path d="M51.9268 45.5002H51.5182V45.815H51.9268C52.2594 45.815 52.5299 45.5478 52.5299 45.2193V44.7789H52.2112V45.2193C52.2112 45.3746 52.084 45.5002 51.9268 45.5002ZM51.5182 43.3203V43.635H51.9268C52.084 43.635 52.2112 43.7618 52.2112 43.917V44.2835H52.5299V43.917C52.5299 43.5875 52.2594 43.3203 51.9268 43.3203H51.5182ZM50.3226 44.7789H50.0039V45.2193C50.0039 45.5478 50.2745 45.815 50.6081 45.815H51.0167V45.5002H50.6081C50.4509 45.5002 50.3226 45.3746 50.3226 45.2193V44.7789ZM50.0039 43.917V44.2835H50.3226V43.917C50.3226 43.7618 50.4509 43.635 50.6081 43.635H51.0167V43.3203H50.6081C50.2745 43.3203 50.0039 43.5875 50.0039 43.917Z" fill="white"/>
<path d="M46.9111 48.6292H46.5026V48.9439H46.9111C47.2437 48.9439 47.5143 48.6767 47.5143 48.3482V47.9078H47.1956V48.3482C47.1956 48.5035 47.0683 48.6292 46.9111 48.6292ZM46.5026 46.4492V46.764H46.9111C47.0683 46.764 47.1956 46.8907 47.1956 47.046V47.4124H47.5143V47.046C47.5143 46.7164 47.2437 46.4492 46.9111 46.4492H46.5026ZM45.307 47.9078H44.9883V48.3482C44.9883 48.6767 45.2588 48.9439 45.5925 48.9439H46.001V48.6292H45.5925C45.4353 48.6292 45.307 48.5035 45.307 48.3482V47.9078ZM44.9883 47.046V47.4124H45.307V47.046C45.307 46.8907 45.4353 46.764 45.5925 46.764H46.001V46.4492H45.5925C45.2588 46.4492 44.9883 46.7164 44.9883 47.046Z" fill="white"/>
<path d="M43.5518 48.6292H43.1432V48.9439H43.5518C43.8844 48.9439 44.1549 48.6767 44.1549 48.3482V47.9078H43.8362V48.3482C43.8362 48.5035 43.709 48.6292 43.5518 48.6292ZM43.1432 46.4492V46.764H43.5518C43.709 46.764 43.8362 46.8907 43.8362 47.046V47.4124H44.1549V47.046C44.1549 46.7164 43.8844 46.4492 43.5518 46.4492H43.1432ZM41.9476 47.9078H41.6289V48.3482C41.6289 48.6767 41.8995 48.9439 42.2331 48.9439H42.6417V48.6292H42.2331C42.0759 48.6292 41.9476 48.5035 41.9476 48.3482V47.9078ZM41.6289 47.046V47.4124H41.9476V47.046C41.9476 46.8907 42.0759 46.764 42.2331 46.764H42.6417V46.4492H42.2331C41.8995 46.4492 41.6289 46.7164 41.6289 47.046Z" fill="white"/>
<path d="M40.2275 48.6292H39.819V48.9439H40.2275C40.5601 48.9439 40.8307 48.6767 40.8307 48.3482V47.9078H40.512V48.3482C40.512 48.5035 40.3847 48.6292 40.2275 48.6292ZM39.819 46.4492V46.764H40.2275C40.3847 46.764 40.512 46.8907 40.512 47.046V47.4124H40.8307V47.046C40.8307 46.7164 40.5601 46.4492 40.2275 46.4492H39.819ZM38.6234 47.9078H38.3047V48.3482C38.3047 48.6767 38.5753 48.9439 38.9089 48.9439H39.3174V48.6292H38.9089C38.7517 48.6292 38.6234 48.5035 38.6234 48.3482V47.9078ZM38.3047 47.046V47.4124H38.6234V47.046C38.6234 46.8907 38.7517 46.764 38.9089 46.764H39.3174V46.4492H38.9089C38.5753 46.4492 38.3047 46.7164 38.3047 47.046Z" fill="white"/>
<path d="M36.9424 48.6292H36.5339V48.9439H36.9424C37.275 48.9439 37.5455 48.6767 37.5455 48.3482V47.9078H37.2269V48.3482C37.2269 48.5035 37.0996 48.6292 36.9424 48.6292ZM36.5339 46.4492V46.764H36.9424C37.0996 46.764 37.2269 46.8907 37.2269 47.046V47.4124H37.5455V47.046C37.5455 46.7164 37.275 46.4492 36.9424 46.4492H36.5339ZM35.3382 47.9078H35.0195V48.3482C35.0195 48.6767 35.2901 48.9439 35.6238 48.9439H36.0323V48.6292H35.6238C35.4666 48.6292 35.3382 48.5035 35.3382 48.3482V47.9078ZM35.0195 47.046V47.4124H35.3382V47.046C35.3382 46.8907 35.4666 46.764 35.6238 46.764H36.0323V46.4492H35.6238C35.2901 46.4492 35.0195 46.7164 35.0195 47.046Z" fill="white"/>
</g>
<mask id="mask2_48_3088" style="mask-type:luminance" maskUnits="userSpaceOnUse" x="52" y="34" width="16" height="16">
<path d="M52.1445 34.0312V40.4887C57.1399 40.4887 61.1888 44.4873 61.1888 49.4207H67.7316C67.7316 40.9228 60.7535 34.0312 52.1456 34.0312H52.1445Z" fill="white"/>
</mask>
<g mask="url(#mask2_48_3088)">
<path d="M53.1648 34.0742H51.1992V40.4915H53.1648V34.0742Z" fill="url(#paint3_linear_48_3088)"/>
<path d="M63.938 39.3439L62.5586 37.9609L57.9295 42.4645L59.309 43.8474L63.938 39.3439Z" fill="url(#paint4_linear_48_3088)"/>
<path d="M66.2002 42.722L65.2344 41.0312L59.575 44.1844L60.5408 45.8752L66.2002 42.722Z" fill="url(#paint5_linear_48_3088)"/>
<path d="M57.1943 34.8586L55.2969 34.3516L53.5998 40.5461L55.4972 41.0531L57.1943 34.8586Z" fill="url(#paint6_linear_48_3088)"/>
<path d="M67.4852 46.5765L67 44.6953L60.7031 46.2793L61.1883 48.1605L67.4852 46.5765Z" fill="url(#paint7_linear_48_3088)"/>
<path d="M60.8614 36.6588L59.1641 35.6797L55.8867 41.2209L57.584 42.2L60.8614 36.6588Z" fill="url(#paint8_linear_48_3088)"/>
<path d="M67.701 50.6207L67.7305 48.6797L61.2333 48.5834L61.2038 50.5244L67.701 50.6207Z" fill="url(#paint9_linear_48_3088)"/>
</g>
<path d="M52.1501 62.943V64.8113C51.7544 64.8113 51.3587 64.7955 50.9705 64.768C50.3535 64.1037 49.9963 62.8923 49.6049 61.5594C49.4113 60.8908 49.0979 59.8315 48.853 59.3974C48.3782 59.6002 47.4564 60.3078 46.8778 60.7503C45.7977 61.5794 44.8159 62.3293 43.9454 62.5089C43.4941 62.6029 43.0781 62.5479 42.6909 62.2702C42.3027 61.9892 42.1134 61.6132 42.0696 61.1559C41.9744 60.2761 42.3979 59.1154 42.8652 57.8374C43.1112 57.1646 43.5026 56.0905 43.5497 55.5899C43.0513 55.4843 41.9145 55.5191 41.1948 55.5434C39.8099 55.5867 38.5511 55.629 37.7277 55.2625C37.3042 55.0787 36.9994 54.7851 36.8486 54.3278C36.7021 53.8821 36.7769 53.4712 37.0111 53.0847C37.4507 52.3337 38.4634 51.6504 39.5799 50.9037C40.2013 50.4812 41.2023 49.8095 41.5349 49.4219H43.1059C43.1059 49.7894 43.1294 50.157 43.1775 50.5129C42.6792 51.1857 41.7605 51.8025 40.6921 52.5186C40.2483 52.8153 39.612 53.2452 39.18 53.5969C39.7575 53.6318 40.5734 53.6085 41.1317 53.5895C42.3829 53.5504 43.4588 53.5156 44.2427 53.7532C44.6544 53.8747 44.987 54.0775 45.2159 54.3901C45.449 54.7069 45.541 55.0819 45.5367 55.516C45.5207 56.3292 45.1528 57.3336 44.725 58.5028C44.5346 59.0193 44.2662 59.7692 44.1229 60.3163C44.602 60.0153 45.2308 59.5389 45.6629 59.2062C46.6682 58.4405 47.5312 57.7751 48.3183 57.5132C48.5557 57.4308 48.7857 57.3886 49.007 57.3886C49.1739 57.3886 49.3354 57.416 49.4979 57.4667C49.8701 57.5882 50.1663 57.8385 50.408 58.1902C50.8711 58.8471 51.1684 59.8515 51.5085 61.0165C51.6753 61.5837 51.9159 62.4159 52.1458 62.9514C52.1458 62.9472 52.1501 62.9472 52.1501 62.944V62.943Z" fill="url(#paint10_linear_48_3088)"/>
<defs>
<linearGradient id="paint0_linear_48_3088" x1="0" y1="62.4735" x2="6.41129" y2="62.4735" gradientUnits="userSpaceOnUse">
<stop stop-color="#037AD6"/>
<stop offset="1" stop-color="#03DDAF"/>
</linearGradient>
<linearGradient id="paint1_linear_48_3088" x1="36.5625" y1="41.7276" x2="52.1442" y2="41.7276" gradientUnits="userSpaceOnUse">
<stop stop-color="#037AD6"/>
<stop offset="1" stop-color="#03DDAF"/>
</linearGradient>
<linearGradient id="paint2_linear_48_3088" x1="52.1484" y1="57.1182" x2="67.7312" y2="57.1182" gradientUnits="userSpaceOnUse">
<stop stop-color="#037AD6"/>
<stop offset="1" stop-color="#03DDAF"/>
</linearGradient>
<linearGradient id="paint3_linear_48_3088" x1="51.1992" y1="37.2829" x2="53.1648" y2="37.2829" gradientUnits="userSpaceOnUse">
<stop stop-color="#037AD6"/>
<stop offset="1" stop-color="#03DDAF"/>
</linearGradient>
<linearGradient id="paint4_linear_48_3088" x1="57.9309" y1="40.9029" x2="63.9401" y2="40.9029" gradientUnits="userSpaceOnUse">
<stop stop-color="#037AD6"/>
<stop offset="1" stop-color="#03DDAF"/>
</linearGradient>
<linearGradient id="paint5_linear_48_3088" x1="59.5727" y1="43.4543" x2="66.1979" y2="43.4543" gradientUnits="userSpaceOnUse">
<stop stop-color="#037AD6"/>
<stop offset="1" stop-color="#03DDAF"/>
</linearGradient>
<linearGradient id="paint6_linear_48_3088" x1="53.5973" y1="37.7052" x2="57.1928" y2="37.7052" gradientUnits="userSpaceOnUse">
<stop stop-color="#037AD6"/>
<stop offset="1" stop-color="#03DDAF"/>
</linearGradient>
<linearGradient id="paint7_linear_48_3088" x1="60.7004" y1="46.4333" x2="67.4817" y2="46.4333" gradientUnits="userSpaceOnUse">
<stop stop-color="#037AD6"/>
<stop offset="1" stop-color="#03DDAF"/>
</linearGradient>
<linearGradient id="paint8_linear_48_3088" x1="55.8902" y1="38.936" x2="60.8642" y2="38.936" gradientUnits="userSpaceOnUse">
<stop stop-color="#037AD6"/>
<stop offset="1" stop-color="#03DDAF"/>
</linearGradient>
<linearGradient id="paint9_linear_48_3088" x1="61.2066" y1="49.5999" x2="67.7334" y2="49.5999" gradientUnits="userSpaceOnUse">
<stop stop-color="#037AD6"/>
<stop offset="1" stop-color="#03DDAF"/>
</linearGradient>
<linearGradient id="paint10_linear_48_3088" x1="36.7737" y1="57.1171" x2="52.1501" y2="57.1171" gradientUnits="userSpaceOnUse">
<stop stop-color="#037AD6"/>
<stop offset="1" stop-color="#03DDAF"/>
</linearGradient>
</defs>
</svg>
