<svg xmlns="http://www.w3.org/2000/svg" width="49" height="48" viewBox="0 0 49 48" fill="none">
  <path d="M8.57402 22.8152L5.76953 0.185547H10.1087L11.7755 15.5787L13.2569 0.185547H17.5961L14.7916 22.8152H8.57402Z" fill="black"/>
  <path d="M18.6797 22.8155V0.211914H23.0714V22.8155H18.6797Z" fill="black"/>
  <path d="M24.8992 22.8155V0.211914H29.45V18.9733H34.1329V22.8147H24.8984L24.8992 22.8155Z" fill="black"/>
  <path d="M36.3256 21.499C35.408 20.482 34.9492 18.8413 34.9492 16.5784V14.3677H39.4205V17.1837C39.4205 18.3067 39.782 18.8674 40.5057 18.8674C40.9112 18.8674 41.1939 18.7491 41.3522 18.5125C41.5113 18.2752 41.5909 17.8773 41.5909 17.315C41.5909 16.5784 41.502 15.9693 41.3259 15.4861C41.1491 15.0037 40.9243 14.6005 40.6509 14.2756C40.3775 13.9514 39.8878 13.4468 39.1826 12.7624L37.2246 10.8152C35.7077 9.34191 34.9492 7.71042 34.9492 5.92069C34.9492 3.99117 35.3949 2.52252 36.2854 1.5132C37.176 0.504657 38.4774 0 40.1882 0C42.2342 0 43.7072 0.539222 44.607 1.61843C45.5068 2.69688 45.9563 4.38598 45.9563 6.68421H41.3259L41.2997 5.13183C41.2997 4.8338 41.2155 4.59721 41.0479 4.42131C40.8803 4.24618 40.6462 4.15785 40.3466 4.15785C39.9936 4.15785 39.7287 4.25463 39.5526 4.44743C39.3757 4.641 39.2884 4.9037 39.2884 5.23706C39.2884 5.97369 39.7117 6.73721 40.5582 7.52607L43.2043 10.0524C43.8215 10.6493 44.3328 11.2146 44.739 11.7492C45.1445 12.2846 45.4705 12.916 45.7176 13.6442C45.9648 14.3723 46.0884 15.2365 46.0884 16.2358C46.0884 18.4634 45.6782 20.1525 44.858 21.3016C44.0377 22.4507 42.6838 23.0253 40.7969 23.0253C38.7331 23.0253 37.2424 22.5168 36.3256 21.499Z" fill="black"/>
  <path d="M0 47.2406V43.6289C0 43.5651 0.051749 43.5137 0.115856 43.5137H4.51452C4.57863 43.5137 4.63037 43.5651 4.63037 43.6289V47.2406C4.63037 47.3044 4.57863 47.3558 4.51452 47.3558H0.115856C0.051749 47.3558 0 47.3044 0 47.2406Z" fill="url(#paint0_linear_3637_9154)"/>
  <path d="M18.9727 47.3555V24.752H23.3644V47.3555H18.9727Z" fill="black"/>
  <path d="M14.7916 24.7256L17.5961 47.3553H13.2569L11.5901 31.9621L10.1087 47.3553H5.76953L8.57402 24.7256H14.7916Z" fill="black"/>
  <path d="M26.4062 35.9473H31.1285C31.1285 32.3594 34.0527 29.4513 37.6605 29.4513V24.752C31.446 24.752 26.4062 29.764 26.4062 35.9466V35.9473Z" fill="url(#paint1_linear_3637_9154)"/>
  <path d="M48.9183 35.9434H44.196C44.196 39.5313 41.2718 42.4394 37.6641 42.4394V47.1387C43.8786 47.1387 48.9183 42.1267 48.9183 35.9441V35.9434Z" fill="url(#paint2_linear_3637_9154)"/>
  <mask id="mask0_3637_9154" style="mask-type:luminance" maskUnits="userSpaceOnUse" x="37" y="35" width="12" height="13">
    <path d="M48.9222 35.9434H44.1999C44.1999 39.5313 41.2757 42.4394 37.668 42.4394V47.1387C43.8825 47.1387 48.9222 42.1267 48.9222 35.9441V35.9434Z" fill="white"/>
  </mask>
  <g mask="url(#mask0_3637_9154)">
    <path d="M46.5 37.9854H51.6116" stroke="white" stroke-width="0.258025" stroke-miterlimit="10" stroke-linecap="round"/>
    <path d="M37.668 38.9775H51.8997" stroke="white" stroke-width="0.258025" stroke-miterlimit="10" stroke-linecap="round"/>
    <path d="M37.668 39.9696H51.8997" stroke="white" stroke-width="0.258025" stroke-miterlimit="10" stroke-linecap="round"/>
    <path d="M37.668 40.9618H51.8997" stroke="white" stroke-width="0.258025" stroke-miterlimit="10" stroke-linecap="round"/>
    <path d="M37.668 41.954H51.8997" stroke="white" stroke-width="0.258025" stroke-miterlimit="10" stroke-linecap="round"/>
    <path d="M37.668 42.9453H51.8997" stroke="white" stroke-width="0.258025" stroke-miterlimit="10" stroke-linecap="round"/>
    <path d="M37.668 43.9375H51.8997" stroke="white" stroke-width="0.258025" stroke-miterlimit="10" stroke-linecap="round"/>
    <path d="M37.668 44.9297H51.8997" stroke="white" stroke-width="0.258025" stroke-miterlimit="10" stroke-linecap="round"/>
    <path d="M37.668 45.9219H51.8997" stroke="white" stroke-width="0.258025" stroke-miterlimit="10" stroke-linecap="round"/>
    <path d="M37.668 46.9141H51.8997" stroke="white" stroke-width="0.258025" stroke-miterlimit="10" stroke-linecap="round"/>
  </g>
  <path d="M46.5425 38.1915C46.6051 37.8505 46.7086 37.6062 46.7912 37.4541C46.8236 37.395 46.7572 37.3289 46.6993 37.3627C46.0073 37.7637 45.7045 38.3482 45.6666 38.8175C45.6342 39.2223 45.9115 39.6386 46.3324 39.7147C46.7526 39.7907 47.1558 39.5127 47.2322 39.0948C47.3118 38.6562 47.0013 38.2353 46.5433 38.1915H46.5425Z" fill="white"/>
  <path d="M44.8159 38.1915C44.8785 37.8505 44.982 37.6062 45.0646 37.4541C45.0971 37.395 45.0307 37.3289 44.9727 37.3627C44.2807 37.7637 43.9779 38.3482 43.9401 38.8175C43.9076 39.2223 44.1849 39.6386 44.6059 39.7147C45.026 39.7907 45.4292 39.5127 45.5057 39.0948C45.5852 38.6562 45.2747 38.2353 44.8167 38.1915H44.8159Z" fill="white"/>
  <mask id="mask1_3637_9154" style="mask-type:luminance" maskUnits="userSpaceOnUse" x="26" y="24" width="12" height="12">
    <path d="M26.4062 35.9483H31.1285C31.1285 32.3604 34.0527 29.4523 37.6605 29.4523V24.7529C31.446 24.7529 26.4062 29.7649 26.4062 35.9476V35.9483Z" fill="white"/>
  </mask>
  <g mask="url(#mask1_3637_9154)">
    <path d="M36.3067 26.2612H36.0116V26.4901H36.3067C36.5469 26.4901 36.7423 26.2958 36.7423 26.0569V25.7366H36.5121V26.0569C36.5121 26.1698 36.4202 26.2612 36.3067 26.2612ZM36.0116 24.6758V24.9047H36.3067C36.4202 24.9047 36.5121 24.9969 36.5121 25.1098V25.3763H36.7423V25.1098C36.7423 24.8701 36.5469 24.6758 36.3067 24.6758H36.0116ZM35.1481 25.7366H34.918V26.0569C34.918 26.2958 35.1134 26.4901 35.3544 26.4901H35.6494V26.2612H35.3544C35.2408 26.2612 35.1481 26.1698 35.1481 26.0569V25.7366ZM34.918 25.1098V25.3763H35.1481V25.1098C35.1481 24.9969 35.2408 24.9047 35.3544 24.9047H35.6494V24.6758H35.3544C35.1134 24.6758 34.918 24.8701 34.918 25.1098Z" fill="white"/>
    <path d="M38.752 26.2612H38.457V26.4901H38.752C38.9922 26.4901 39.1876 26.2958 39.1876 26.0569V25.7366H38.9575V26.0569C38.9575 26.1698 38.8655 26.2612 38.752 26.2612ZM38.457 24.6758V24.9047H38.752C38.8655 24.9047 38.9575 24.9969 38.9575 25.1098V25.3763H39.1876V25.1098C39.1876 24.8701 38.9922 24.6758 38.752 24.6758H38.457ZM37.5934 25.7366H37.3633V26.0569C37.3633 26.2958 37.5587 26.4901 37.7997 26.4901H38.0947V26.2612H37.7997C37.6861 26.2612 37.5934 26.1698 37.5934 26.0569V25.7366ZM37.3633 25.1098V25.3763H37.5934V25.1098C37.5934 24.9969 37.6861 24.9047 37.7997 24.9047H38.0947V24.6758H37.7997C37.5587 24.6758 37.3633 24.8701 37.3633 25.1098Z" fill="white"/>
    <path d="M33.8809 26.2612H33.5859V26.4901H33.8809C34.1211 26.4901 34.3165 26.2958 34.3165 26.0569V25.7366H34.0864V26.0569C34.0864 26.1698 33.9945 26.2612 33.8809 26.2612ZM33.5859 24.6758V24.9047H33.8809C33.9945 24.9047 34.0864 24.9969 34.0864 25.1098V25.3763H34.3165V25.1098C34.3165 24.8701 34.1211 24.6758 33.8809 24.6758H33.5859ZM32.7224 25.7366H32.4922V26.0569C32.4922 26.2958 32.6876 26.4901 32.9286 26.4901H33.2236V26.2612H32.9286C32.815 26.2612 32.7224 26.1698 32.7224 26.0569V25.7366ZM32.4922 25.1098V25.3763H32.7224V25.1098C32.7224 24.9969 32.815 24.9047 32.9286 24.9047H33.2236V24.6758H32.9286C32.6876 24.6758 32.4922 24.8701 32.4922 25.1098Z" fill="white"/>
    <path d="M31.4551 26.2612H31.1601V26.4901H31.4551C31.6953 26.4901 31.8908 26.2958 31.8908 26.0569V25.7366H31.6606V26.0569C31.6606 26.1698 31.5687 26.2612 31.4551 26.2612ZM31.1601 24.6758V24.9047H31.4551C31.5687 24.9047 31.6606 24.9969 31.6606 25.1098V25.3763H31.8908V25.1098C31.8908 24.8701 31.6953 24.6758 31.4551 24.6758H31.1601ZM30.2966 25.7366H30.0664V26.0569C30.0664 26.2958 30.2618 26.4901 30.5028 26.4901H30.7978V26.2612H30.5028C30.3893 26.2612 30.2966 26.1698 30.2966 26.0569V25.7366ZM30.0664 25.1098V25.3763H30.2966V25.1098C30.2966 24.9969 30.3893 24.9047 30.5028 24.9047H30.7978V24.6758H30.5028C30.2618 24.6758 30.0664 24.8701 30.0664 25.1098Z" fill="white"/>
    <path d="M36.3067 30.8149H36.0116V31.0438H36.3067C36.5469 31.0438 36.7423 30.8495 36.7423 30.6106V30.2903H36.5121V30.6106C36.5121 30.7235 36.4202 30.8149 36.3067 30.8149ZM36.0116 29.2295V29.4584H36.3067C36.4202 29.4584 36.5121 29.5506 36.5121 29.6635V29.93H36.7423V29.6635C36.7423 29.4238 36.5469 29.2295 36.3067 29.2295H36.0116ZM35.1481 30.2903H34.918V30.6106C34.918 30.8495 35.1134 31.0438 35.3544 31.0438H35.6494V30.8149H35.3544C35.2408 30.8149 35.1481 30.7235 35.1481 30.6106V30.2903ZM34.918 29.6635V29.93H35.1481V29.6635C35.1481 29.5506 35.2408 29.4584 35.3544 29.4584H35.6494V29.2295H35.3544C35.1134 29.2295 34.918 29.4238 34.918 29.6635Z" fill="white"/>
    <path d="M35.0918 28.5385H34.7968V28.7674H35.0918C35.3321 28.7674 35.5275 28.5731 35.5275 28.3342V28.0139H35.2973V28.3342C35.2973 28.4471 35.2054 28.5385 35.0918 28.5385ZM34.7968 26.9531V27.182H35.0918C35.2054 27.182 35.2973 27.2742 35.2973 27.3871V27.6537H35.5275V27.3871C35.5275 27.1475 35.3321 26.9531 35.0918 26.9531H34.7968ZM33.9333 28.0139H33.7031V28.3342C33.7031 28.5731 33.8985 28.7674 34.1395 28.7674H34.4346V28.5385H34.1395C34.026 28.5385 33.9333 28.4471 33.9333 28.3342V28.0139ZM33.7031 27.3871V27.6537H33.9333V27.3871C33.9333 27.2742 34.026 27.182 34.1395 27.182H34.4346V26.9531H34.1395C33.8985 26.9531 33.7031 27.1475 33.7031 27.3871Z" fill="white"/>
    <path d="M32.6856 28.5385H32.3906V28.7674H32.6856C32.9258 28.7674 33.1212 28.5731 33.1212 28.3342V28.0139H32.8911V28.3342C32.8911 28.4471 32.7991 28.5385 32.6856 28.5385ZM32.3906 26.9531V27.182H32.6856C32.7991 27.182 32.8911 27.2742 32.8911 27.3871V27.6537H33.1212V27.3871C33.1212 27.1475 32.9258 26.9531 32.6856 26.9531H32.3906ZM31.527 28.0139H31.2969V28.3342C31.2969 28.5731 31.4923 28.7674 31.7333 28.7674H32.0283V28.5385H31.7333C31.6197 28.5385 31.527 28.4471 31.527 28.3342V28.0139ZM31.2969 27.3871V27.6537H31.527V27.3871C31.527 27.2742 31.6197 27.182 31.7333 27.182H32.0283V26.9531H31.7333C31.4923 26.9531 31.2969 27.1475 31.2969 27.3871Z" fill="white"/>
    <path d="M30.2989 28.5385H30.0038V28.7674H30.2989C30.5391 28.7674 30.7345 28.5731 30.7345 28.3342V28.0139H30.5043V28.3342C30.5043 28.4471 30.4124 28.5385 30.2989 28.5385ZM30.0038 26.9531V27.182H30.2989C30.4124 27.182 30.5043 27.2742 30.5043 27.3871V27.6537H30.7345V27.3871C30.7345 27.1475 30.5391 26.9531 30.2989 26.9531H30.0038ZM29.1403 28.0139H28.9102V28.3342C28.9102 28.5731 29.1056 28.7674 29.3465 28.7674H29.6416V28.5385H29.3465C29.233 28.5385 29.1403 28.4471 29.1403 28.3342V28.0139ZM28.9102 27.3871V27.6537H29.1403V27.3871C29.1403 27.2742 29.233 27.182 29.3465 27.182H29.6416V26.9531H29.3465C29.1056 26.9531 28.9102 27.1475 28.9102 27.3871Z" fill="white"/>
    <path d="M37.502 28.5385H37.207V28.7674H37.502C37.7422 28.7674 37.9376 28.5731 37.9376 28.3342V28.0139H37.7075V28.3342C37.7075 28.4471 37.6155 28.5385 37.502 28.5385ZM37.207 26.9531V27.182H37.502C37.6155 27.182 37.7075 27.2742 37.7075 27.3871V27.6537H37.9376V27.3871C37.9376 27.1475 37.7422 26.9531 37.502 26.9531H37.207ZM36.3434 28.0139H36.1133V28.3342C36.1133 28.5731 36.3087 28.7674 36.5497 28.7674H36.8447V28.5385H36.5497C36.4361 28.5385 36.3434 28.4471 36.3434 28.3342V28.0139ZM36.1133 27.3871V27.6537H36.3434V27.3871C36.3434 27.2742 36.4361 27.182 36.5497 27.182H36.8447V26.9531H36.5497C36.3087 26.9531 36.1133 27.1475 36.1133 27.3871Z" fill="white"/>
    <path d="M33.8809 30.8149H33.5859V31.0438H33.8809C34.1211 31.0438 34.3165 30.8495 34.3165 30.6106V30.2903H34.0864V30.6106C34.0864 30.7235 33.9945 30.8149 33.8809 30.8149ZM33.5859 29.2295V29.4584H33.8809C33.9945 29.4584 34.0864 29.5506 34.0864 29.6635V29.93H34.3165V29.6635C34.3165 29.4238 34.1211 29.2295 33.8809 29.2295H33.5859ZM32.7224 30.2903H32.4922V30.6106C32.4922 30.8495 32.6876 31.0438 32.9286 31.0438H33.2236V30.8149H32.9286C32.815 30.8149 32.7224 30.7235 32.7224 30.6106V30.2903ZM32.4922 29.6635V29.93H32.7224V29.6635C32.7224 29.5506 32.815 29.4584 32.9286 29.4584H33.2236V29.2295H32.9286C32.6876 29.2295 32.4922 29.4238 32.4922 29.6635Z" fill="white"/>
    <path d="M31.4551 30.8149H31.1601V31.0438H31.4551C31.6953 31.0438 31.8908 30.8495 31.8908 30.6106V30.2903H31.6606V30.6106C31.6606 30.7235 31.5687 30.8149 31.4551 30.8149ZM31.1601 29.2295V29.4584H31.4551C31.5687 29.4584 31.6606 29.5506 31.6606 29.6635V29.93H31.8908V29.6635C31.8908 29.4238 31.6953 29.2295 31.4551 29.2295H31.1601ZM30.2966 30.2903H30.0664V30.6106C30.0664 30.8495 30.2618 31.0438 30.5028 31.0438H30.7978V30.8149H30.5028C30.3893 30.8149 30.2966 30.7235 30.2966 30.6106V30.2903ZM30.0664 29.6635V29.93H30.2966V29.6635C30.2966 29.5506 30.3893 29.4584 30.5028 29.4584H30.7978V29.2295H30.5028C30.2618 29.2295 30.0664 29.4238 30.0664 29.6635Z" fill="white"/>
    <path d="M29.0528 30.8149H28.7577V31.0438H29.0528C29.293 31.0438 29.4884 30.8495 29.4884 30.6106V30.2903H29.2582V30.6106C29.2582 30.7235 29.1663 30.8149 29.0528 30.8149ZM28.7577 29.2295V29.4584H29.0528C29.1663 29.4584 29.2582 29.5506 29.2582 29.6635V29.93H29.4884V29.6635C29.4884 29.4238 29.293 29.2295 29.0528 29.2295H28.7577ZM27.8942 30.2903H27.6641V30.6106C27.6641 30.8495 27.8595 31.0438 28.1005 31.0438H28.3955V30.8149H28.1005C27.9869 30.8149 27.8942 30.7235 27.8942 30.6106V30.2903ZM27.6641 29.6635V29.93H27.8942V29.6635C27.8942 29.5506 27.9869 29.4584 28.1005 29.4584H28.3955V29.2295H28.1005C27.8595 29.2295 27.6641 29.4238 27.6641 29.6635Z" fill="white"/>
    <path d="M36.3067 35.3687H36.0116V35.5976H36.3067C36.5469 35.5976 36.7423 35.4033 36.7423 35.1644V34.8441H36.5121V35.1644C36.5121 35.2773 36.4202 35.3687 36.3067 35.3687ZM36.0116 33.7833V34.0122H36.3067C36.4202 34.0122 36.5121 34.1044 36.5121 34.2173V34.4839H36.7423V34.2173C36.7423 33.9777 36.5469 33.7833 36.3067 33.7833H36.0116ZM35.1481 34.8441H34.918V35.1644C34.918 35.4033 35.1134 35.5976 35.3544 35.5976H35.6494V35.3687H35.3544C35.2408 35.3687 35.1481 35.2773 35.1481 35.1644V34.8441ZM34.918 34.2173V34.4839H35.1481V34.2173C35.1481 34.1044 35.2408 34.0122 35.3544 34.0122H35.6494V33.7833H35.3544C35.1134 33.7833 34.918 33.9777 34.918 34.2173Z" fill="white"/>
    <path d="M35.0918 33.0932H34.7968V33.3221H35.0918C35.3321 33.3221 35.5275 33.1278 35.5275 32.8889V32.5686H35.2973V32.8889C35.2973 33.0018 35.2054 33.0932 35.0918 33.0932ZM34.7968 31.5078V31.7367H35.0918C35.2054 31.7367 35.2973 31.8289 35.2973 31.9418V32.2083H35.5275V31.9418C35.5275 31.7021 35.3321 31.5078 35.0918 31.5078H34.7968ZM33.9333 32.5686H33.7031V32.8889C33.7031 33.1278 33.8985 33.3221 34.1395 33.3221H34.4346V33.0932H34.1395C34.026 33.0932 33.9333 33.0018 33.9333 32.8889V32.5686ZM33.7031 31.9418V32.2083H33.9333V31.9418C33.9333 31.8289 34.026 31.7367 34.1395 31.7367H34.4346V31.5078H34.1395C33.8985 31.5078 33.7031 31.7021 33.7031 31.9418Z" fill="white"/>
    <path d="M32.6856 33.0932H32.3906V33.3221H32.6856C32.9258 33.3221 33.1212 33.1278 33.1212 32.8889V32.5686H32.8911V32.8889C32.8911 33.0018 32.7991 33.0932 32.6856 33.0932ZM32.3906 31.5078V31.7367H32.6856C32.7991 31.7367 32.8911 31.8289 32.8911 31.9418V32.2083H33.1212V31.9418C33.1212 31.7021 32.9258 31.5078 32.6856 31.5078H32.3906ZM31.527 32.5686H31.2969V32.8889C31.2969 33.1278 31.4923 33.3221 31.7333 33.3221H32.0283V33.0932H31.7333C31.6197 33.0932 31.527 33.0018 31.527 32.8889V32.5686ZM31.2969 31.9418V32.2083H31.527V31.9418C31.527 31.8289 31.6197 31.7367 31.7333 31.7367H32.0283V31.5078H31.7333C31.4923 31.5078 31.2969 31.7021 31.2969 31.9418Z" fill="white"/>
    <path d="M30.2989 33.0932H30.0038V33.3221H30.2989C30.5391 33.3221 30.7345 33.1278 30.7345 32.8889V32.5686H30.5043V32.8889C30.5043 33.0018 30.4124 33.0932 30.2989 33.0932ZM30.0038 31.5078V31.7367H30.2989C30.4124 31.7367 30.5043 31.8289 30.5043 31.9418V32.2083H30.7345V31.9418C30.7345 31.7021 30.5391 31.5078 30.2989 31.5078H30.0038ZM29.1403 32.5686H28.9102V32.8889C28.9102 33.1278 29.1056 33.3221 29.3465 33.3221H29.6416V33.0932H29.3465C29.233 33.0932 29.1403 33.0018 29.1403 32.8889V32.5686ZM28.9102 31.9418V32.2083H29.1403V31.9418C29.1403 31.8289 29.233 31.7367 29.3465 31.7367H29.6416V31.5078H29.3465C29.1056 31.5078 28.9102 31.7021 28.9102 31.9418Z" fill="white"/>
    <path d="M27.959 33.0932H27.664V33.3221H27.959C28.1992 33.3221 28.3947 33.1278 28.3947 32.8889V32.5686H28.1645V32.8889C28.1645 33.0018 28.0726 33.0932 27.959 33.0932ZM27.664 31.5078V31.7367H27.959C28.0726 31.7367 28.1645 31.8289 28.1645 31.9418V32.2083H28.3947V31.9418C28.3947 31.7021 28.1992 31.5078 27.959 31.5078H27.664ZM26.8005 32.5686H26.5703V32.8889C26.5703 33.1278 26.7657 33.3221 27.0067 33.3221H27.3017V33.0932H27.0067C26.8932 33.0932 26.8005 33.0018 26.8005 32.8889V32.5686ZM26.5703 31.9418V32.2083H26.8005V31.9418C26.8005 31.8289 26.8932 31.7367 27.0067 31.7367H27.3017V31.5078H27.0067C26.7657 31.5078 26.5703 31.7021 26.5703 31.9418Z" fill="white"/>
    <path d="M37.502 33.0932H37.207V33.3221H37.502C37.7422 33.3221 37.9376 33.1278 37.9376 32.8889V32.5686H37.7075V32.8889C37.7075 33.0018 37.6155 33.0932 37.502 33.0932ZM37.207 31.5078V31.7367H37.502C37.6155 31.7367 37.7075 31.8289 37.7075 31.9418V32.2083H37.9376V31.9418C37.9376 31.7021 37.7422 31.5078 37.502 31.5078H37.207ZM36.3434 32.5686H36.1133V32.8889C36.1133 33.1278 36.3087 33.3221 36.5497 33.3221H36.8447V33.0932H36.5497C36.4361 33.0932 36.3434 33.0018 36.3434 32.8889V32.5686ZM36.1133 31.9418V32.2083H36.3434V31.9418C36.3434 31.8289 36.4361 31.7367 36.5497 31.7367H36.8447V31.5078H36.5497C36.3087 31.5078 36.1133 31.7021 36.1133 31.9418Z" fill="white"/>
    <path d="M33.8809 35.3686H33.5859V35.5975H33.8809C34.1211 35.5975 34.3165 35.4032 34.3165 35.1643V34.844H34.0864V35.1643C34.0864 35.2772 33.9945 35.3686 33.8809 35.3686ZM33.5859 33.7832V34.0121H33.8809C33.9945 34.0121 34.0864 34.1043 34.0864 34.2172V34.4837H34.3165V34.2172C34.3165 33.9775 34.1211 33.7832 33.8809 33.7832H33.5859ZM32.7224 34.844H32.4922V35.1643C32.4922 35.4032 32.6876 35.5975 32.9286 35.5975H33.2236V35.3686H32.9286C32.815 35.3686 32.7224 35.2772 32.7224 35.1643V34.844ZM32.4922 34.2172V34.4837H32.7224V34.2172C32.7224 34.1043 32.815 34.0121 32.9286 34.0121H33.2236V33.7832H32.9286C32.6876 33.7832 32.4922 33.9775 32.4922 34.2172Z" fill="white"/>
    <path d="M31.4551 35.3687H31.1601V35.5976H31.4551C31.6953 35.5976 31.8908 35.4033 31.8908 35.1644V34.8441H31.6606V35.1644C31.6606 35.2773 31.5687 35.3687 31.4551 35.3687ZM31.1601 33.7833V34.0122H31.4551C31.5687 34.0122 31.6606 34.1044 31.6606 34.2173V34.4839H31.8908V34.2173C31.8908 33.9777 31.6953 33.7833 31.4551 33.7833H31.1601ZM30.2966 34.8441H30.0664V35.1644C30.0664 35.4033 30.2618 35.5976 30.5028 35.5976H30.7978V35.3687H30.5028C30.3893 35.3687 30.2966 35.2773 30.2966 35.1644V34.8441ZM30.0664 34.2173V34.4839H30.2966V34.2173C30.2966 34.1044 30.3893 34.0122 30.5028 34.0122H30.7978V33.7833H30.5028C30.2618 33.7833 30.0664 33.9777 30.0664 34.2173Z" fill="white"/>
    <path d="M29.0528 35.3686H28.7577V35.5975H29.0528C29.293 35.5975 29.4884 35.4032 29.4884 35.1643V34.844H29.2582V35.1643C29.2582 35.2772 29.1663 35.3686 29.0528 35.3686ZM28.7577 33.7832V34.0121H29.0528C29.1663 34.0121 29.2582 34.1043 29.2582 34.2172V34.4837H29.4884V34.2172C29.4884 33.9775 29.293 33.7832 29.0528 33.7832H28.7577ZM27.8942 34.844H27.6641V35.1643C27.6641 35.4032 27.8595 35.5975 28.1005 35.5975H28.3955V35.3686H28.1005C27.9869 35.3686 27.8942 35.2772 27.8942 35.1643V34.844ZM27.6641 34.2172V34.4837H27.8942V34.2172C27.8942 34.1043 27.9869 34.0121 28.1005 34.0121H28.3955V33.7832H28.1005C27.8595 33.7832 27.6641 33.9775 27.6641 34.2172Z" fill="white"/>
    <path d="M26.6817 35.3687H26.3866V35.5976H26.6817C26.9219 35.5976 27.1173 35.4033 27.1173 35.1644V34.8441H26.8871V35.1644C26.8871 35.2773 26.7952 35.3687 26.6817 35.3687ZM26.3866 33.7833V34.0122H26.6817C26.7952 34.0122 26.8871 34.1044 26.8871 34.2173V34.4839H27.1173V34.2173C27.1173 33.9777 26.9219 33.7833 26.6817 33.7833H26.3866ZM25.5231 34.8441H25.293V35.1644C25.293 35.4033 25.4884 35.5976 25.7294 35.5976H26.0244V35.3687H25.7294C25.6158 35.3687 25.5231 35.2773 25.5231 35.1644V34.8441ZM25.293 34.2173V34.4839H25.5231V34.2173C25.5231 34.1044 25.6158 34.0122 25.7294 34.0122H26.0244V33.7833H25.7294C25.4884 33.7833 25.293 33.9777 25.293 34.2173Z" fill="white"/>
  </g>
  <mask id="mask2_3637_9154" style="mask-type:luminance" maskUnits="userSpaceOnUse" x="37" y="24" width="12" height="12">
    <path d="M37.6602 24.7529V29.4492C41.2679 29.4492 44.1921 32.3573 44.1921 35.9452H48.9175C48.9175 29.7649 43.8778 24.7529 37.6609 24.7529H37.6602Z" fill="white"/>
  </mask>
  <g mask="url(#mask2_3637_9154)">
    <path d="M38.3962 24.7842H36.9766V29.4513H38.3962V24.7842Z" fill="url(#paint3_linear_3637_9154)"/>
    <path d="M46.1799 28.6151L45.1836 27.6094L41.8404 30.8847L42.8366 31.8904L46.1799 28.6151Z" fill="url(#paint4_linear_3637_9154)"/>
    <path d="M47.8108 31.0753L47.1133 29.8457L43.0259 32.1389L43.7235 33.3686L47.8108 31.0753Z" fill="url(#paint5_linear_3637_9154)"/>
    <path d="M41.3039 25.3541L39.9336 24.9854L38.7079 29.4905L40.0782 29.8592L41.3039 25.3541Z" fill="url(#paint6_linear_3637_9154)"/>
    <path d="M48.741 33.8759L48.3906 32.5078L43.8429 33.6598L44.1933 35.0279L48.741 33.8759Z" fill="url(#paint7_linear_3637_9154)"/>
    <path d="M43.9563 26.6652L42.7305 25.9531L40.3635 29.9831L41.5893 30.6952L43.9563 26.6652Z" fill="url(#paint8_linear_3637_9154)"/>
    <path d="M48.8967 36.8159L48.918 35.4043L44.2256 35.3342L44.2043 36.7459L48.8967 36.8159Z" fill="url(#paint9_linear_3637_9154)"/>
  </g>
  <path d="M37.664 45.7769V47.1357C37.3782 47.1357 37.0924 47.1242 36.812 47.1042C36.3664 46.621 36.1084 45.74 35.8257 44.7706C35.6859 44.2844 35.4596 43.514 35.2828 43.1983C34.9398 43.3458 34.274 43.8604 33.8562 44.1822C33.0761 44.7852 32.367 45.3306 31.7383 45.4612C31.4124 45.5295 31.1119 45.4896 30.8323 45.2876C30.552 45.0833 30.4153 44.8098 30.3836 44.4772C30.3148 43.8374 30.6207 42.9932 30.9582 42.0638C31.1359 41.5745 31.4186 40.7933 31.4526 40.4292C31.0926 40.3524 30.2716 40.3777 29.7518 40.3954C28.7516 40.4269 27.8425 40.4576 27.2478 40.1911C26.9419 40.0574 26.7218 39.8439 26.6129 39.5113C26.5071 39.1871 26.5611 38.8883 26.7303 38.6072C27.0477 38.0611 27.7791 37.5641 28.5855 37.021C29.0343 36.7138 29.7572 36.2253 29.9974 35.9434H31.132C31.132 36.2107 31.149 36.478 31.1838 36.7368C30.8238 37.2261 30.1604 37.6747 29.3888 38.1955C29.0682 38.4113 28.6087 38.724 28.2966 38.9797C28.7137 39.0051 29.303 38.9882 29.7062 38.9744C30.6099 38.946 31.3869 38.9206 31.9531 39.0934C32.2504 39.1818 32.4906 39.3292 32.6559 39.5566C32.8243 39.787 32.8907 40.0597 32.8876 40.3754C32.876 40.9669 32.6103 41.6974 32.3014 42.5477C32.1639 42.9233 31.97 43.4687 31.8665 43.8665C32.2126 43.6476 32.6667 43.3012 32.9788 43.0593C33.7048 42.5024 34.3281 42.0184 34.8966 41.8279C35.068 41.768 35.2341 41.7373 35.394 41.7373C35.5145 41.7373 35.6311 41.7573 35.7485 41.7941C36.0173 41.8825 36.2312 42.0645 36.4058 42.3203C36.7402 42.7981 36.9549 43.5286 37.2006 44.3758C37.321 44.7883 37.4948 45.3936 37.6609 45.783C37.6609 45.7799 37.664 45.7799 37.664 45.7776V45.7769Z" fill="url(#paint10_linear_3637_9154)"/>
  <defs>
    <linearGradient id="paint0_linear_3637_9154" x1="0" y1="45.4347" x2="4.63037" y2="45.4347" gradientUnits="userSpaceOnUse">
      <stop stop-color="#037AD6"/>
      <stop offset="1" stop-color="#03DDAF"/>
    </linearGradient>
    <linearGradient id="paint1_linear_3637_9154" x1="26.4062" y1="30.3493" x2="37.6597" y2="30.3493" gradientUnits="userSpaceOnUse">
      <stop stop-color="#037AD6"/>
      <stop offset="1" stop-color="#03DDAF"/>
    </linearGradient>
    <linearGradient id="paint2_linear_3637_9154" x1="37.6641" y1="41.5407" x2="48.9183" y2="41.5407" gradientUnits="userSpaceOnUse">
      <stop stop-color="#037AD6"/>
      <stop offset="1" stop-color="#03DDAF"/>
    </linearGradient>
    <linearGradient id="paint3_linear_3637_9154" x1="36.9766" y1="27.1177" x2="38.3962" y2="27.1177" gradientUnits="userSpaceOnUse">
      <stop stop-color="#037AD6"/>
      <stop offset="1" stop-color="#03DDAF"/>
    </linearGradient>
    <linearGradient id="paint4_linear_3637_9154" x1="41.8414" y1="29.749" x2="46.1814" y2="29.749" gradientUnits="userSpaceOnUse">
      <stop stop-color="#037AD6"/>
      <stop offset="1" stop-color="#03DDAF"/>
    </linearGradient>
    <linearGradient id="paint5_linear_3637_9154" x1="43.0243" y1="31.6079" x2="47.8091" y2="31.6079" gradientUnits="userSpaceOnUse">
      <stop stop-color="#037AD6"/>
      <stop offset="1" stop-color="#03DDAF"/>
    </linearGradient>
    <linearGradient id="paint6_linear_3637_9154" x1="38.7062" y1="27.4244" x2="41.3029" y2="27.4244" gradientUnits="userSpaceOnUse">
      <stop stop-color="#037AD6"/>
      <stop offset="1" stop-color="#03DDAF"/>
    </linearGradient>
    <linearGradient id="paint7_linear_3637_9154" x1="43.8409" y1="33.7718" x2="48.7385" y2="33.7718" gradientUnits="userSpaceOnUse">
      <stop stop-color="#037AD6"/>
      <stop offset="1" stop-color="#03DDAF"/>
    </linearGradient>
    <linearGradient id="paint8_linear_3637_9154" x1="40.366" y1="28.3213" x2="43.9583" y2="28.3213" gradientUnits="userSpaceOnUse">
      <stop stop-color="#037AD6"/>
      <stop offset="1" stop-color="#03DDAF"/>
    </linearGradient>
    <linearGradient id="paint9_linear_3637_9154" x1="44.2063" y1="36.0736" x2="48.9201" y2="36.0736" gradientUnits="userSpaceOnUse">
      <stop stop-color="#037AD6"/>
      <stop offset="1" stop-color="#03DDAF"/>
    </linearGradient>
    <linearGradient id="paint10_linear_3637_9154" x1="26.5588" y1="41.5399" x2="37.664" y2="41.5399" gradientUnits="userSpaceOnUse">
      <stop stop-color="#037AD6"/>
      <stop offset="1" stop-color="#03DDAF"/>
    </linearGradient>
  </defs>
</svg>